<?xml version="1.0" encoding="UTF-8"?>
<svg version="1.1" xmlns="http://www.w3.org/2000/svg" width="800" height="534">
<path d="M0 0 C264 0 528 0 800 0 C800 176.22 800 352.44 800 534 C536 534 272 534 0 534 C0 357.78 0 181.56 0 0 Z " fill="#DA251C" transform="translate(0,0)"/>
<path d="M0 0 C29.6506846 -0.89669409 61.40904279 14.62091617 84 33 C84.55929199 33.45246094 85.11858398 33.90492187 85.69482422 34.37109375 C116.30696212 59.29992991 135.14994996 92.48018224 143 131 C143.36931641 132.63195312 143.36931641 132.63195312 143.74609375 134.296875 C150.62060543 169.38058979 141.82047874 212.98803189 121.9375 242.8125 C119.75587378 245.67171064 119.75587378 245.67171064 120.22264099 248.02166748 C121.53943577 251.37283201 124.24826781 253.61093815 126.78515625 256.078125 C127.36083847 256.64956238 127.93652069 257.22099976 128.52964783 257.80975342 C130.36700319 259.63033802 132.21452132 261.44020568 134.0625 263.25 C135.31123138 264.48368253 136.55928669 265.71804978 137.80664062 266.953125 C140.8633102 269.97674655 143.92913526 272.99079921 147 276 C142.62970634 281.22948744 138.03088196 286.10289955 133.1953125 290.90234375 C132.4713327 291.6249086 131.74735291 292.34747345 131.00143433 293.0919342 C128.71164735 295.37616922 126.41839007 297.65688312 124.125 299.9375 C122.56226839 301.49521039 120.9997661 303.05315087 119.4375 304.61132812 C115.6276469 308.41021602 111.81494621 312.20622713 108 316 C103.82391761 312.50488066 99.84656337 308.94827893 96.08203125 305.00390625 C95.22029297 304.11638672 94.35855469 303.22886719 93.47070312 302.31445312 C91.67923263 300.45980071 89.89551222 298.59763469 88.11914062 296.72851562 C87.26126953 295.85001953 86.40339844 294.97152344 85.51953125 294.06640625 C84.36094604 292.8589978 84.36094604 292.8589978 83.17895508 291.62719727 C81.18011847 289.77274666 81.18011847 289.77274666 78.9621582 290.10693359 C76.91028919 291.04083142 75.00898967 292.04438215 73.0859375 293.22265625 C71.95937744 293.90086426 71.95937744 293.90086426 70.81005859 294.59277344 C70.00648926 295.0777832 69.20291992 295.56279297 68.375 296.0625 C42.39750084 311.30962482 14.69156375 319.45671511 -15.5 319.375 C-16.68953781 319.37368576 -16.68953781 319.37368576 -17.90310669 319.37234497 C-30.63652012 319.32603932 -42.695889 318.52438096 -55 315 C-56.30662598 314.6299585 -56.30662598 314.6299585 -57.63964844 314.25244141 C-69.73976069 310.72378354 -80.97449576 306.08420533 -92 300 C-93.06605469 299.42378906 -94.13210938 298.84757812 -95.23046875 298.25390625 C-108.98376632 290.54992456 -122.41665791 280.30001051 -132.5625 268.125 C-133.93201535 266.7909273 -133.93201535 266.7909273 -135.78607178 267.14720154 C-138.85997983 268.33126163 -140.5423752 270.18349921 -142.86035156 272.51977539 C-143.32910706 272.9880928 -143.79786255 273.45641022 -144.28082275 273.93891907 C-145.82464325 275.48482547 -147.3575726 277.04107683 -148.890625 278.59765625 C-149.96042394 279.67305184 -151.03088824 280.74778592 -152.10198975 281.82188416 C-154.91655581 284.64789349 -157.72199579 287.48279642 -160.52563477 290.31964111 C-163.38924028 293.21395852 -166.26137861 296.09978076 -169.1328125 298.98632812 C-174.76359817 304.64926883 -180.38477183 310.32163273 -186 316 C-188.90543872 314.68623083 -190.96661059 313.27943508 -193.20800781 311.01904297 C-193.80832825 310.41857147 -194.40864868 309.81809998 -195.02716064 309.19943237 C-195.66272888 308.55354156 -196.29829712 307.90765076 -196.953125 307.2421875 C-197.61334656 306.57913605 -198.27356812 305.91608459 -198.95379639 305.23294067 C-201.05727824 303.11828168 -203.15369142 300.99676788 -205.25 298.875 C-206.67662261 297.43834443 -208.10370072 296.00214102 -209.53125 294.56640625 C-213.02613661 291.04949196 -216.51470062 287.52641453 -220 284 C-215.83174662 279.0278738 -211.49244504 274.35279555 -206.89306641 269.77954102 C-206.20944031 269.09576889 -205.52581421 268.41199677 -204.82147217 267.70750427 C-202.583867 265.47059017 -200.34275155 263.23722911 -198.1015625 261.00390625 C-196.54050184 259.44471263 -194.97966327 257.88529661 -193.41903687 256.32566833 C-189.32779371 252.2382278 -185.23355542 248.1538004 -181.13867188 244.07000732 C-176.9539051 239.8955033 -172.77199759 235.71813708 -168.58984375 231.54101562 C-160.39601449 223.35788389 -152.19901608 215.17793461 -144 207 C-140.53956033 208.54847405 -138.81974452 210.35112247 -136.44921875 213.3125 C-133.63679559 216.58734315 -130.32113738 219.25782476 -127 222 C-126.01128906 222.82628906 -125.02257812 223.65257812 -124.00390625 224.50390625 C-102.93785022 241.78319198 -78.63735963 253.82328671 -52.1875 260.25 C-51.51831543 260.41346924 -50.84913086 260.57693848 -50.15966797 260.74536133 C-28.03130289 265.83125058 -1.50558361 265.22150544 20 258 C20.66418945 257.78118164 21.32837891 257.56236328 22.01269531 257.33691406 C28.53240964 255.13688719 33.98321826 252.43816099 40 249 C5.02 214.02 -29.96 179.04 -66 143 C-70.4543919 146.8180502 -74.60776397 150.48690388 -78.71484375 154.6171875 C-79.21544815 155.11920685 -79.71605255 155.6212262 -80.23182678 156.13845825 C-81.80278598 157.71493671 -83.37019877 159.29488573 -84.9375 160.875 C-86.01343727 161.95596274 -87.08960731 163.03669383 -88.16601562 164.1171875 C-90.78003292 166.74212641 -93.39088596 169.37018628 -96 172 C-99.44677 170.51657 -101.67343301 168.56949812 -104.30957031 165.91748047 C-105.15013977 165.07675995 -105.99070923 164.23603943 -106.85675049 163.36984253 C-107.75480408 162.46146637 -108.65285767 161.55309021 -109.578125 160.6171875 C-110.5046991 159.68778351 -111.43127319 158.75837952 -112.38592529 157.80081177 C-114.84315789 155.3359615 -117.29432361 152.86516334 -119.7442627 150.39306641 C-122.24773809 147.86909235 -124.75692063 145.35080612 -127.265625 142.83203125 C-132.18267525 137.89356403 -137.09333788 132.948788 -142 128 C-137.92999133 123.17139238 -133.73386698 118.49328881 -129.39746094 113.90307617 C-128.76535202 113.2322702 -128.1332431 112.56146423 -127.48197937 111.87033081 C-121.66083766 105.71046923 -115.77434604 99.61433568 -109.86487961 93.5392561 C-105.9124016 89.47304645 -101.98584134 85.38747694 -98.11181641 81.24633789 C-69.52137011 50.73618257 -69.52137011 50.73618257 -55.69342041 49.04585266 C-51.58693338 48.96149747 -47.64649535 49.22914702 -43.57937622 49.78218079 C-39.56193363 50.12143963 -35.97502265 49.2646734 -32.125 48.1875 C-30.90554688 47.84847656 -29.68609375 47.50945312 -28.4296875 47.16015625 C-23.96178291 45.64880356 -19.68951268 43.8286724 -15.453125 41.7578125 C-13 41 -13 41 -11.14453125 41.66699219 C-8.45730823 43.3373289 -6.45797414 45.31820568 -4.234375 47.5703125 C-3.34492188 48.46621094 -2.45546875 49.36210937 -1.5390625 50.28515625 C-0.61867188 51.22230469 0.30171875 52.15945312 1.25 53.125 C2.19484856 54.07988637 3.14015633 55.03431859 4.0859375 55.98828125 C6.39518338 58.32109087 8.69963203 60.65844086 11 63 C9.60919475 66.13738154 7.98977796 68.25475281 5.56005859 70.66699219 C4.50919571 71.71762848 4.50919571 71.71762848 3.43710327 72.78948975 C2.68184357 73.53442688 1.92658386 74.27936401 1.1484375 75.046875 C0.37440582 75.81807678 -0.39962585 76.58927856 -1.19711304 77.3838501 C-3.66841923 79.84396856 -6.14659183 82.29703848 -8.625 84.75 C-10.30254052 86.41750894 -11.97962945 88.08547232 -13.65625 89.75390625 C-17.76561022 93.84122472 -21.88102589 97.92237281 -26 102 C-21.05817281 107.96125222 -15.71498171 113.42035041 -10.23095703 118.88256836 C-9.25449993 119.85874287 -8.27826399 120.83513866 -7.30223083 121.81173706 C-4.67060613 124.44364693 -2.03592479 127.07247704 0.59934378 129.70073771 C3.35978942 132.45490298 6.1173755 135.21192841 8.87527466 137.96864319 C14.08984089 143.18010986 19.30694943 148.38902365 24.52499115 153.5970102 C30.4689615 159.52977656 36.41006931 165.46540599 42.35094619 171.40126979 C54.56412985 183.60402023 66.7808781 195.80319582 79 208 C93.86916322 188.62286387 93.85548217 157.11716015 90.875 134 C83.82973657 84.45209224 53.25870969 39.95279128 13.88378906 10.24780273 C9.86909157 7.2668748 5.767932 4.55149483 1.47314453 1.98925781 C0.74393799 1.4995752 0.74393799 1.4995752 0 1 C0 0.67 0 0.34 0 0 Z " fill="#FEFE00" transform="translate(409,94)"/>
</svg>
